<?xml version="1.0" encoding="UTF-8"?> <svg xmlns="http://www.w3.org/2000/svg" width="248" height="45" viewBox="0 0 248 45"><path d="M138.2608,0 L138.2608,45.354 L121.4908,45.354 C116.8608,45.354 114.0498,44.461 111.7878,42.275 C109.5968,40.155 108.7408,37.459 108.7408,32.656 L108.7408,24.648 C108.7408,19.848 109.5968,17.15 111.7878,15.029 C114.0498,12.841 116.8618,11.95 121.4908,11.95 L130.3408,11.95 L130.3408,0 L138.2608,0 Z M71.4076,11.9501 C79.4306,11.9501 83.0026,14.7551 84.1466,21.9541 L84.1466,21.9541 L84.1826,22.1821 L76.1216,22.1821 C75.9536,21.2131 75.7186,20.6781 75.2566,20.2171 C74.4796,19.4901 73.5746,19.2411 69.7876,19.2411 L68.0802861,19.2419426 C62.2913666,19.2722669 62.0176,20.1207364 62.0176,21.7211 L62.0176,22.9171 C62.0176,23.9461 62.6256,24.6661 63.7296,24.9401 C64.3026,25.0951 65.5146,25.1581 67.9276,25.1581 L67.9276,25.1581 L72.0544642,25.1588674 C76.180974,25.1748471 77.9227563,25.4440688 79.6636,26.3111 C82.5916,27.8031 84.3376,30.6871 84.3376,34.0291 L84.3376,34.0291 L84.3376,36.2411 C84.3376,40.3981 82.1256,45.3541 71.5876,45.3541 L71.5876,45.3541 L66.7876,45.3541 C58.7196,45.3541 55.1496,42.5611 54.0576,35.3951 L54.0576,35.3951 L54.0236,35.1751 L62.0766,35.1751 C62.2436,36.1251 62.4866,36.6761 62.9146,37.0661 C63.7096,37.8551 64.4776,38.0631 68.4076,38.0631 L68.4076,38.0631 L69.9676,38.0631 C76.0606,38.0631 76.3576,37.1881 76.3576,35.6441 L76.3576,34.4501 C76.3576,33.3721 75.7806,32.7101 74.5926,32.4271 C74.0501,32.2662667 72.7048222,32.2214056 71.2951926,32.2109194 L70.729659,32.2083649 L70.729659,32.2083649 L66.7276,32.2081 C62.5596,32.2081 60.5366,31.9011 58.7116,30.9931 C55.7386,29.4801 54.0376,26.6901 54.0376,23.3351 L54.0376,23.3351 L54.0376,21.1241 C54.0376,16.9371 56.2496,11.9501 66.7876,11.9501 L66.7876,11.9501 Z M235.1015,11.9501 C243.1245,11.9501 246.6965,14.7551 247.8415,21.9541 L247.8415,21.9541 L247.8775,22.1821 L239.8145,22.1821 C239.6475,21.2131 239.4135,20.6781 238.9505,20.2171 C238.1735,19.4901 237.2675,19.2411 233.4805,19.2411 L231.774186,19.2419426 C225.985267,19.2722669 225.7115,20.1207364 225.7115,21.7211 L225.7115,22.9171 C225.7115,23.9461 226.3195,24.6661 227.4235,24.9401 C227.9965,25.0951 229.2075,25.1581 231.6215,25.1581 L231.6215,25.1581 L235.748452,25.1588674 C239.875813,25.1748471 241.616656,25.4440688 243.3575,26.3111 C246.2865,27.8031 248.0315,30.6871 248.0315,34.0291 L248.0315,34.0291 L248.0315,36.2411 C248.0315,40.3981 245.8195,45.3541 235.2815,45.3541 L235.2815,45.3541 L230.4805,45.3541 C222.4135,45.3541 218.8435,42.5611 217.7525,35.3951 L217.7525,35.3951 L217.7185,35.1751 L225.7695,35.1751 C225.9355,36.1251 226.1805,36.6761 226.6085,37.0641 C227.4035,37.8551 228.1715,38.0631 232.1015,38.0631 L232.1015,38.0631 L233.6615,38.0631 C239.7535,38.0631 240.0505,37.1881 240.0505,35.6441 L240.0505,34.4501 C240.0505,33.3721 239.4725,32.7101 238.2865,32.4271 C237.743167,32.2662667 236.398444,32.2214056 234.988444,32.2109194 L234.422708,32.2083649 L234.422708,32.2083649 L230.4215,32.2081 C226.2535,32.2081 224.2305,31.9011 222.4065,30.9931 C219.4315,29.4801 217.7305,26.6901 217.7305,23.3351 L217.7305,23.3351 L217.7305,21.1241 C217.7305,16.9371 219.9425,11.9501 230.4805,11.9501 L230.4805,11.9501 Z M32.9331,11.95 C37.5631,11.95 40.3741,12.841 42.6361,15.029 C44.8281,17.15 45.6831,19.848 45.6831,24.648 L45.6831,45.354 L37.7631,45.354 L37.7631,25.844 C37.7631,22.102 37.5021,21.159 36.7661,20.38 C36.0471,19.665 35.1531,19.42 31.3131,19.42 L24.0831,19.42 L24.0831,45.354 L16.1631,45.354 L16.1631,11.95 L32.9331,11.95 Z M100.5,11.952 L100.5,45.354 L92.58,45.354 L92.58,11.952 L100.5,11.952 Z M7.92,11.952 L7.92,45.354 L0,45.354 L0,11.952 L7.92,11.952 Z M164.055,11.9498 C168.666,11.9498 171.567,12.8548 173.756,14.9708 C175.979,17.1188 176.805,19.7568 176.805,24.7088 L176.805,24.7088 L176.805,31.4308 L154.426,31.4308 L154.426672,31.9664592 C154.44152,35.4903822 154.704235,36.3879765 155.405,37.0868 C156.088,37.8128 157.012,38.0638 160.875,38.0638 L162.762625,38.0632538 C166.380301,38.0507902 167.166714,37.8221714 167.905,37.0868 C168.297,36.7288 168.581,36.2758 168.771,35.1758 L168.771,35.1758 L176.816,35.1758 L176.783,35.3948 C175.692,42.5608 172.123,45.3538 164.055,45.3538 L164.055,45.3538 L159.254,45.3538 C154.621,45.3538 151.717,44.4298 149.545,42.2668 C147.359,40.1548 146.504,37.4588 146.504,32.6568 L146.504,32.6568 L146.504,24.7088 C146.504,19.9278 147.357,17.2158 149.545,15.0368 C151.719,12.8748 154.621,11.9498 159.254,11.9498 L159.254,11.9498 Z M199.8284,11.9497 C207.8694,11.9497 211.5514,14.8527 212.5374,21.9677 L212.5374,21.9677 L212.5664,22.1817 L204.5664,22.1817 C204.3994,21.3747 204.1514,20.8467 203.7154,20.3727 C202.9044,19.6587 202.0314,19.4197 198.2684,19.4197 L198.2684,19.4197 L193.0784,19.4197 L193.0784,45.3537 L185.1584,45.3537 L185.1584,11.9497 Z M130.3408,19.42 L123.1118,19.42 C119.2708,19.42 118.3778,19.665 117.6418,20.396 C116.9228,21.159 116.6608,22.102 116.6608,25.844 L116.6608,31.462 C116.6608,35.204 116.9228,36.146 117.6568,36.926 C118.3758,37.64 119.2698,37.885 123.1118,37.885 L130.3408,37.885 L130.3408,19.42 Z M162.436,19.2408 L160.875,19.2408 C155.196,19.2408 154.485,19.6358 154.43,24.3198 L154.43,24.3198 L168.881,24.3198 C168.826,19.6358 168.114,19.2408 162.436,19.2408 L162.436,19.2408 Z M100.498,0.002 L100.498,7.471 L92.578,7.471 L92.578,0.002 L100.498,0.002 Z M7.92,0.002 L7.92,7.471 L0,7.471 L0,0.002 L7.92,0.002 Z" fill-rule="evenodd"></path></svg> 